<?xml version="1.0" encoding="UTF-8" standalone="no"?>
<svg xmlns="http://www.w3.org/2000/svg" width="120" height="119" viewBox="-.033 .33 120 119">
  <radialGradient id="a" cx="59.0664" cy="115.019" r="113.163" gradientUnits="userSpaceOnUse">
    <stop offset="0" stop-color="#fff"/>
    <stop offset=".3315" stop-color="#00d9d4"/>
    <stop offset=".7921" stop-color="#004e4e"/>
  </radialGradient>
  <linearGradient id="b" x1="59.856" x2="59.8559" y1="221.169" y2="67.9062" gradientUnits="userSpaceOnUse">
    <stop offset=".413793" stop-color="#fff"/>
    <stop offset="1" stop-color="#fff" stop-opacity="0"/>
  </linearGradient>
  <radialGradient id="c" cx="106.178" cy="178.479" r="90.5363" gradientTransform="matrix(1.4768 0 0 1 -121.483 0)" gradientUnits="userSpaceOnUse">
    <stop offset="0" stop-color="#fff"/>
    <stop offset="1"/>
  </radialGradient>
  <linearGradient id="d" x1="57.6558" x2="57.6558" y1="7.1294" y2="65.4678" gradientUnits="userSpaceOnUse">
    <stop offset="0" stop-color="#fff"/>
    <stop offset="1" stop-color="#fff" stop-opacity="0"/>
  </linearGradient>
  <linearGradient id="e" x1="59.6089" x2="59.6089" y1="148.134" y2="74.0741" gradientUnits="userSpaceOnUse">
    <stop offset="0" stop-color="#fff"/>
    <stop offset=".844828" stop-color="#fff" stop-opacity="0"/>
  </linearGradient>
  <radialGradient id="f" cx="59.0571" cy="86.0903" r="114.61" gradientUnits="userSpaceOnUse">
    <stop offset="0" stop-color="#fff"/>
    <stop offset=".3315" stop-color="#006868"/>
    <stop offset=".7921" stop-color="#002b38"/>
  </radialGradient>
  <path fill="#fff" fill-rule="evenodd" d="M102.394 83.761l-15.747 8.173 2.423 5.678 16.72-8.627z" clip-rule="evenodd"/>
  <path fill="url(#a)" d="M59.856 118.905C27.295 118.905.809 92.419.809 59.861S27.295.814 59.856.814c32.559 0 59.05 26.489 59.05 59.047 0 32.557-26.491 59.044-59.05 59.044z"/>
  <path fill="url(#b)" d="M59.856 2.719c-31.561 0-57.139 25.584-57.139 57.142 0 31.561 25.578 57.141 57.139 57.141 31.555 0 57.137-25.58 57.137-57.141 0-31.557-25.582-57.142-57.137-57.142zm0 111.557c-30.009 0-54.418-24.409-54.418-54.415 0-30.007 24.41-54.419 54.418-54.419 30.006 0 54.418 24.412 54.418 54.419 0 30.006-24.412 54.415-54.418 54.415z"/>
  <path fill="#fff" d="M58.357 114.716a60.061 60.061 0 0 0 51.462-25.747c-16.25-13.038-40.227-21.726-67.175-22.641-14.29-.484-27.891 1.271-40.066 4.798 6.717 24.349 28.906 42.678 55.779 43.59z"/>
  <path fill="url(#c)" d="M59.856 118.905c20.954 0 39.381-10.979 49.863-27.478C93.268 78.95 69.344 71.078 42.75 71.078c-14.1 0-27.448 2.214-39.331 6.153 7.435 24.107 29.919 41.674 56.437 41.674z"/>
  <path fill="url(#d)" d="M59.617 61.709c21.398-16.257 41.521-21.767 50.343-23.515-8.494-19.685-27.662-33.416-49.959-33.416-30.181 0-54.649 25.155-54.649 56.174 0 4.875.607 9.6 1.743 14.111 8.853 1.678 30.505 3.365 52.522-13.354z"/>
  <path fill="url(#e)" d="M59.604 100.053c-26.164 0-47.928-15.618-49.919-40.048a43.632 43.632 0 0 0-.167 3.633c0 26.132 22.626 47.433 50.086 47.433 27.659 0 50.095-21.301 50.095-47.433 0-1.226-.064-2.435-.164-3.633-1.979 24.43-23.577 40.048-49.931 40.048z" opacity=".8"/>
  <path fill="none" d="M59.856 2.719c-31.561 0-57.139 25.584-57.139 57.142 0 3.537.338 6.995.955 10.356 11.665-2.686 24.31-3.977 37.494-3.528 26.823.91 50.977 8.762 68.711 20.79a56.874 56.874 0 0 0 7.115-27.618c.001-31.557-25.581-57.142-57.136-57.142z"/>
  <path fill="url(#f)" d="M2.718 59.861c0-31.557 25.578-57.142 57.139-57.142 31.555 0 57.137 25.584 57.137 57.142a56.869 56.869 0 0 1-7.115 27.618c.751.511 1.505 1.018 2.229 1.54a59.46 59.46 0 0 0 7.611-29.158C119.719 26.853 92.863 0 59.856 0 26.85 0 0 26.853 0 59.861c0 3.751.364 7.421 1.026 10.981.875-.22 1.76-.419 2.646-.625a57.38 57.38 0 0 1-.954-10.356z"/>
  <path d="M59.856 119.72c22.427 0 41.999-12.404 52.251-30.701-.725-.522-1.479-1.029-2.229-1.54-9.737 17.603-28.486 29.522-50.021 29.522-28.021 0-51.311-20.171-56.184-46.784-.886.206-1.771.405-2.646.625 5.174 27.777 29.577 48.878 58.829 48.878z"/>
  <path fill="none" d="M41.102 71.11c.55-.009 1.094-.032 1.648-.032 9.45 0 18.555 1.012 27.116 2.854-11.33-12.375-27.627-30.17-28.764-31.412z"/>
  <path fill="#fff" d="M91.42 29.815H70.329a.52.52 0 0 0-.527.514v1.457a.52.52 0 0 0 .527.515c5.146 0 7.76.721 7.76 4.664v31.478c-1.751-1.965-34.356-38.451-34.356-38.451a.532.532 0 0 0-.396-.176H27.955a.52.52 0 0 0-.527.514v1.457c0 .146.063.285.175.383a.53.53 0 0 0 .406.129c3.584-.37 4.56.699 6.335 2.639l1.189 1.258v41.956c0 3.854-4.22 4.663-7.762 4.663a.52.52 0 0 0-.528.513v1.455c0 .285.238.516.528.516h21.092c.292 0 .528-.23.528-.516v-1.455a.52.52 0 0 0-.528-.513c-3.541 0-7.761-.81-7.761-4.663V42.519c1.137 1.242 17.435 19.037 28.764 31.412a115.434 115.434 0 0 1 13.792 3.845V36.965c0-3.943 2.614-4.664 7.762-4.664a.52.52 0 0 0 .525-.515V30.33a.52.52 0 0 0-.525-.515z"/>
</svg>
